<svg height="464pt" viewBox="0 0 464 464" width="464pt" xmlns="http://www.w3.org/2000/svg"><path d="m448 448h16v16h-16zm0 0"/><path d="m0 448h16v16h-16zm0 0"/><path d="m136 288c-24.726562 0-46.832031 16.574219-53.761719 40.320312l-4.644531 15.925782c4.421875 6.691406 7.589844 7.753906 10.359375 7.753906 6.574219 0 10.75-7.398438 16.832031-19.574219 6.328125-12.664062 14.207032-28.425781 31.160156-28.425781 16.949219 0 24.832032 15.761719 31.167969 28.425781 6.09375 12.175781 10.269531 19.574219 16.855469 19.574219 2.773438 0 5.96875-1.046875 10.414062-7.800781l-4.628906-15.878907c-6.921875-23.734374-29.027344-40.320312-53.753906-40.320312zm0 0"/><path d="m263.6875 359.945312-4.375 12.503907c4.679688 8.328125 8.253906 11.550781 12.640625 11.550781 6.574219 0 10.75-7.398438 16.832031-19.574219 6.328125-12.664062 14.207032-28.425781 31.160156-28.425781 16.949219 0 24.832032 15.761719 31.167969 28.425781 6.09375 12.175781 10.269531 19.574219 16.855469 19.574219 4.398438 0 7.992188-3.238281 12.6875-11.59375l-4.351562-12.460938c-8.359376-23.890624-30.992188-39.945312-56.304688-39.945312s-47.945312 16.054688-56.3125 39.945312zm0 0"/><path d="m229.785156 408.390625 18.800782-53.726563c10.613281-30.304687 39.308593-50.664062 71.414062-50.664062.222656 0 .449219.023438.671875.023438l-21.34375-73.183594c-4.671875 5.144531-10.863281 9.152344-19.351563 9.152344-16.953124 0-24.832031-15.761719-31.167968-28.425782-6.097656-12.175781-10.273438-19.574218-16.855469-19.574218-6.578125 0-10.761719 7.398437-16.839844 19.574218-6.328125 12.664063-14.210937 28.425782-31.152343 28.425782-8.464844 0-14.640626-3.984376-19.296876-9.105469l-12.542968 43c24.925781 5.800781 45.648437 24.714843 53.007812 49.945312zm0 0"/><path d="m178.238281 184.320312-7.757812 26.601563c5.160156 9.542969 8.839843 13.078125 13.472656 13.078125 6.574219 0 10.75-7.398438 16.832031-19.574219 6.328125-12.664062 14.207032-28.425781 31.160156-28.425781 16.949219 0 24.832032 15.761719 31.167969 28.425781 6.09375 12.175781 10.269531 19.574219 16.855469 19.574219 4.648438 0 8.34375-3.550781 13.527344-13.136719l-7.742188-26.542969c-6.160156-21.144531-24.386718-36.519531-45.761718-39.65625v-48.664062l96-40-96-40v-16h-16v144.664062c-21.359376 3.136719-39.585938 18.519532-45.753907 39.65625zm0 0"/><path d="m387.175781 391.007812c-4.589843 4.984376-10.742187 8.992188-19.199219 8.992188-16.953124 0-24.832031-15.761719-31.167968-28.425781-6.097656-12.175781-10.273438-19.574219-16.855469-19.574219-6.578125 0-10.761719 7.398438-16.839844 19.574219-6.328125 12.664062-14.210937 28.425781-31.152343 28.425781-8.433594 0-14.570313-3.992188-19.144532-8.960938l-19.929687 56.960938h-16.957031l4.773437-13.640625-21.046875-72.152344c-4.007812 3.25-9.121094 5.785157-15.671875 5.785157-16.953125 0-24.832031-15.761719-31.167969-28.425782-6.097656-12.175781-10.273437-19.574218-16.855468-19.574218-6.578126 0-10.761719 7.398437-16.839844 19.574218-6.328125 12.664063-14.210938 28.425782-31.152344 28.425782-6.441406 0-11.496094-2.328126-15.625-5.695313l-25.007812 85.703125h-15.335938v16h400v-16h-24.878906zm0 0"/><path d="m33.414062 240h111.914063l17.550781-60.167969c4.914063-16.839843 15.785156-30.847656 29.863282-40.046875-10.214844-4.640625-22.269532-5.015625-32.757813-.425781l-8.0625 3.527344-2.167969-6.589844c-6.976562-21.207031-25.21875-37.488281-47.402344-39.945313-33.703124-3.734374-62.351562 22.679688-62.351562 55.648438 0 2.976562.3125 5.929688.777344 8.839844 19.277344 3.585937 34.558594 18.703125 38.328125 37.914062.941406 4.820313-3.027344 9.246094-7.9375 9.246094-3.886719 0-7.054688-2.832031-7.855469-6.640625-3.066406-14.472656-15.9375-25.359375-31.304688-25.359375-18.703124 0-33.695312 16.113281-31.847656 35.191406 1.617188 16.625 16.550782 28.808594 33.253906 28.808594zm0 0"/></svg>